<?xml version="1.0" encoding="utf-8"?>
<!-- Generator: Adobe Illustrator 17.1.0, SVG Export Plug-In . SVG Version: 6.00 Build 0)  -->
<!DOCTYPE svg PUBLIC "-//W3C//DTD SVG 1.1//EN" "http://www.w3.org/Graphics/SVG/1.1/DTD/svg11.dtd">
<svg version="1.1" id="Layer_1" xmlns="http://www.w3.org/2000/svg" xmlns:xlink="http://www.w3.org/1999/xlink" x="0px" y="0px"
	 viewBox="0 0 404.9 80.6" enable-background="new 0 0 404.9 80.6" xml:space="preserve">
<g>
	<g>
		<g>
			<g>
				<polygon fill="#151515" points="51.4,0 51.4,34.6 11.8,34.6 11.8,0 0,0 0,80.5 11.8,80.5 11.8,46.4 51.4,46.4 51.4,80.5 
					63.2,80.5 63.2,46.2 63.2,34.4 63.2,0 				"/>
			</g>
		</g>
		<g>
			<g>
				<rect x="38.8" y="50.3" fill="#91B0D5" width="6.7" height="15.9"/>
			</g>
			<g>
				<rect x="17.7" y="50.3" fill="#91B0D5" width="6.7" height="15.9"/>
			</g>
			<g>
				<rect x="28.2" y="50.3" fill="#91B0D5" width="6.7" height="15.9"/>
			</g>
		</g>
		<polygon fill="#91B0D5" points="17.6,28.4 17.6,30.7 45.6,30.7 45.6,28.4 31.6,21.4 		"/>
	</g>
	<g>
		<path fill="#151515" d="M106.5,10.2V3.8c0-1.1,0-1.6-0.1-1.7c-0.2-0.2-0.6-0.2-2-0.2V1.4c0.5,0,2.1,0.1,3.2,0.1c1,0,2.7-0.1,3-0.1
			v0.5C109.4,2,109,2,108.8,2.2c-0.1,0.1-0.1,0.6-0.1,1.7v13.9c0,1.1,0,1.6,0.1,1.7c0.2,0.2,0.6,0.2,1.8,0.2v0.5
			c-0.4,0-2.1-0.1-3-0.1c-1.1,0-2.7,0.1-3.2,0.1v-0.5c1.4-0.1,1.8-0.1,2-0.2c0.1-0.1,0.1-0.6,0.1-1.7v-6.9H96v6.9
			c0,1.1,0,1.6,0.1,1.7c0.2,0.2,0.6,0.2,2,0.2v0.5c-0.5,0-2.1-0.1-3.2-0.1c-1,0-2.7,0.1-3,0.1v-0.5c1.2-0.1,1.6-0.1,1.8-0.2
			c0.1-0.1,0.1-0.6,0.1-1.7V3.8c0-1.1,0-1.6-0.1-1.7C93.5,2,93.1,2,91.9,1.9V1.4c0.4,0,2.1,0.1,3,0.1c1.1,0,2.7-0.1,3.2-0.1v0.5
			c-1.4,0.1-1.8,0.1-2,0.2C96.1,2.3,96,2.7,96,3.8v6.3H106.5z"/>
		<path fill="#151515" d="M112.3,8.8l3.4-0.2c-0.1,2.5-0.2,5.9-0.2,8.1c0,1.9,0.7,2.5,2.5,2.5c1.3,0,2.8-0.5,3.6-0.9
			c0.1-2.7,0.1-6.2,0.1-8.1c0-0.8,0-0.8-1.7-0.8l0.1-0.5l3.4-0.2c-0.1,3.3-0.1,7.5-0.1,9.9c0,1,0,1.2,0.5,1.2h1.1l0,0.5l-3.5,0.2
			c0-0.4,0.1-1.1,0.1-1.3c0-0.1,0-0.2-0.1-0.2c-0.1,0-0.1,0-0.2,0.1c-1.5,0.7-3.4,1.4-5,1.4c-1.9,0-2.8-1.1-2.8-3.3
			c0-2.2,0.2-4.5,0.2-6.9c0-0.8,0-0.8-1.7-0.8L112.3,8.8z"/>
		<path fill="#151515" d="M129.6,9.5c-0.1,1-0.1,2.5-0.1,3.3v2.6c0,3,0,3.8,1.7,3.8c0.8,0,1.6-0.3,2.3-0.6l0.1,0.4
			c-0.7,0.5-2.3,1.4-3.9,1.4c-1.4,0-2-0.7-2-2.4v-6.3c0-1.8,0-1.9-0.1-2.1c0-0.1-0.1-0.2-0.4-0.2c-0.3,0-0.6,0-0.8,0
			c-0.1,0-0.1,0-0.1-0.1c0,0,0.1-0.1,0.1-0.1l3-4c0.1-0.1,0.1-0.1,0.2-0.1c0.1,0,0.1,0.1,0.1,0.2c0,0.1-0.1,1.1-0.2,3.4h3.6L133,9.4
			L129.6,9.5z"/>
		<path fill="#151515" d="M145.2,18.5c-0.8,0.7-2.4,1.9-4.8,1.9c-2.9,0-5.5-1.9-5.5-5.8c0-3.3,2.3-6.2,5.8-6.2
			c2.8,0,4.2,1.7,4.2,2.6c0,0.6-0.9,1-1.1,1c-0.3,0-0.4-0.3-0.6-1c-0.3-1.2-1.1-2.1-2.5-2.1c-2.4,0-3.8,2.4-3.8,5.1
			c0,3.7,2.3,5.3,4.7,5.3c1.2,0,2.4-0.4,3.4-1.1L145.2,18.5z"/>
		<path fill="#151515" d="M150.4,17.8c0,1.3,0,1.5,0.1,1.6c0.1,0.1,0.4,0.2,1.3,0.2v0.5c-0.3,0-1.6-0.1-2.4-0.1
			c-1,0-2.1,0.1-2.6,0.1v-0.5c1.2,0,1.5-0.1,1.5-0.2c0.1-0.1,0.1-0.3,0.1-1.6V2.7c0-1.3-0.1-1.5-0.1-1.6C148.3,1,148.2,1,147.8,1
			h-1.1V0.5l3.9-0.5c-0.1,1.1-0.2,3.2-0.2,5.3v4.9c0,0.1,0,0.2,0.1,0.2c0.1,0,0.1,0,0.2-0.1c1.2-1,2.6-1.7,3.9-1.7
			c2.8,0,3.8,1.6,3.8,4.6v4.6c0,1.3,0,1.5,0.1,1.6c0.1,0.1,0.4,0.2,1.3,0.2v0.5c-0.3,0-1.6-0.1-2.4-0.1c-1,0-2.1,0.1-2.6,0.1v-0.5
			c1.2,0,1.5-0.1,1.5-0.2c0.1-0.1,0.1-0.3,0.1-1.6v-4.9c0-2.2-0.9-3.3-2.8-3.3c-0.9,0-2,0.3-3.4,1.5V17.8z"/>
		<path fill="#151515" d="M163.6,11c0-1.3-0.1-1.5-0.1-1.6c-0.1-0.1-0.2-0.1-0.6-0.1h-1.4l0.2-0.5l3.8-0.2c-0.1,1.3-0.1,2.1-0.1,3.5
			v5.7c0,1.3,0,1.5,0.1,1.6c0.1,0.1,0.4,0.2,1.5,0.2v0.5c-0.3,0-1.8-0.1-2.6-0.1c-1,0-2.3,0.1-2.8,0.1v-0.5c1.4,0,1.7-0.1,1.8-0.2
			c0.1-0.1,0.1-0.3,0.1-1.6V11z M164.4,5.3c-0.6,0-1-0.5-1-1c0-0.6,0.5-1.4,1.4-1.4c0.6,0,1,0.5,1,1C165.8,4.4,165.4,5.3,164.4,5.3z
			"/>
		<path fill="#151515" d="M172.5,17.8c0,1.3,0,1.5,0.1,1.6c0.1,0.1,0.4,0.2,1.3,0.2v0.5c-0.3,0-1.6-0.1-2.4-0.1
			c-1,0-2.1,0.1-2.6,0.1v-0.5c1.2,0,1.5-0.1,1.5-0.2c0.1-0.1,0.1-0.3,0.1-1.6V11c0-1.3-0.1-1.5-0.1-1.6c-0.1-0.1-0.2-0.1-0.6-0.1
			h-1.1l0.2-0.5l3.5-0.2c0,0.6-0.1,1.5-0.1,1.7c0,0.1,0,0.2,0.1,0.2c0.1,0,0.1,0,0.3-0.2c1.2-1,2.6-1.7,3.9-1.7
			c1.2,0,2.2,0.4,2.7,0.9c0.8,0.8,1.1,2,1.1,3.6v4.7c0,1.3,0,1.5,0.1,1.6c0.1,0.1,0.4,0.2,1.3,0.2v0.5c-0.3,0-1.6-0.1-2.4-0.1
			c-1,0-2.1,0.1-2.6,0.1v-0.5c1.2,0,1.5-0.1,1.5-0.2c0.1-0.1,0.1-0.3,0.1-1.6v-4.6c0-2.4-0.9-3.6-2.8-3.6c-0.9,0-2,0.3-3.4,1.5V17.8
			z"/>
		<path fill="#151515" d="M184.8,17.7c0.2,0,0.2,0.2,0.6,0.7c0.8,1.1,1.4,1.6,2.5,1.6c1.5,0,2.4-1.2,2.4-2.2c0-1.3-0.9-1.7-3-2.6
			c-2.3-1-3.1-1.8-3.1-3.3c0-1.7,1.4-3.4,4.2-3.4c2.3,0,3,1.2,3,1.9c0,0.5-0.6,0.7-1,0.7c-0.3,0-0.3-0.1-0.4-0.9
			c-0.2-0.9-0.7-1.2-1.7-1.2c-1.6,0-2.5,1.1-2.5,2.2c0,1,0.5,1.5,2.8,2.5c2.5,1.1,3.3,1.7,3.3,3.4c0,1.8-1.7,3.5-4.4,3.5
			c-2.2,0-3.5-1.1-3.5-1.7C184,18.3,184.6,17.7,184.8,17.7z"/>
		<path fill="#151515" d="M218.6,1.4l-0.1,6.2h-0.6c0-0.6-0.2-2.2-0.4-3.4c-0.6-0.8-2.6-2.5-5.5-2.5c-3.7,0-7.5,2.7-7.5,8.7
			c0,6.9,4.5,9.4,8.1,9.4c1.6,0,3.3-0.5,4.2-1.2c1.2-1,1.1-2.4,1.4-4.6h0.6l-0.2,4.2c-1.1,0.8-3.4,2.5-7.4,2.5
			c-5.2,0-9.2-3.7-9.2-9.8c0-5.9,4.1-9.7,9.6-9.7c1.3,0,2.8,0.2,4.2,0.7c1.2,0.4,1.5,0.7,1.8,0.7c0.3,0,0.3-0.1,0.4-1.1H218.6z"/>
		<path fill="#151515" d="M230.2,13.5l-6.4-0.1c-0.1,0.2-0.1,0.6-0.1,1c0,2.6,1.4,5,4.5,5c1.6,0,2.6-0.7,3.8-1.9l0.3,0.3
			c-1,1.1-2.7,2.7-5.1,2.7c-3.2,0-5.6-2.2-5.6-5.7c0-3.3,2.3-6.3,5.8-6.3c1.5,0,2.7,0.5,3.5,1.4c0.7,0.7,1,1.7,1,3.4L230.2,13.5z
			 M230.2,12.9c0.1-2.2-0.7-4-2.7-4c-2,0-3.3,1.7-3.6,4L230.2,12.9z"/>
		<path fill="#151515" d="M237.2,17.8c0,1.3,0,1.5,0.1,1.6c0.1,0.1,0.4,0.2,1.3,0.2v0.5c-0.3,0-1.6-0.1-2.4-0.1
			c-1,0-2.1,0.1-2.6,0.1v-0.5c1.2,0,1.5-0.1,1.5-0.2c0.1-0.1,0.1-0.3,0.1-1.6V11c0-1.3-0.1-1.5-0.1-1.6c-0.1-0.1-0.2-0.1-0.6-0.1
			h-1.1l0.2-0.5l3.5-0.2c0,0.6-0.1,1.5-0.1,1.7c0,0.1,0,0.2,0.1,0.2c0.1,0,0.1,0,0.3-0.2c1.2-1,2.6-1.7,3.9-1.7
			c1.2,0,2.2,0.4,2.7,0.9c0.8,0.8,1.1,2,1.1,3.6v4.7c0,1.3,0,1.5,0.1,1.6c0.1,0.1,0.4,0.2,1.3,0.2v0.5c-0.3,0-1.6-0.1-2.4-0.1
			c-1,0-2.1,0.1-2.6,0.1v-0.5c1.2,0,1.5-0.1,1.5-0.2c0.1-0.1,0.1-0.3,0.1-1.6v-4.6c0-2.4-0.9-3.6-2.8-3.6c-0.9,0-2,0.3-3.4,1.5V17.8
			z"/>
		<path fill="#151515" d="M251.1,9.5c-0.1,1-0.1,2.5-0.1,3.3v2.6c0,3,0,3.8,1.7,3.8c0.8,0,1.6-0.3,2.3-0.6L255,19
			c-0.7,0.5-2.3,1.4-3.9,1.4c-1.4,0-2-0.7-2-2.4v-6.3c0-1.8,0-1.9-0.1-2.1c0-0.1-0.1-0.2-0.4-0.2c-0.3,0-0.6,0-0.8,0
			c-0.1,0-0.1,0-0.1-0.1c0,0,0.1-0.1,0.1-0.1l3-4c0.1-0.1,0.1-0.1,0.2-0.1c0.1,0,0.1,0.1,0.1,0.2c0,0.1-0.1,1.1-0.2,3.4h3.6
			l-0.2,0.6L251.1,9.5z"/>
		<path fill="#151515" d="M264.7,13.5l-6.4-0.1c-0.1,0.2-0.1,0.6-0.1,1c0,2.6,1.4,5,4.5,5c1.6,0,2.7-0.7,3.8-1.9l0.3,0.3
			c-1,1.1-2.7,2.7-5.1,2.7c-3.2,0-5.6-2.2-5.6-5.7c0-3.3,2.3-6.3,5.8-6.3c1.5,0,2.7,0.5,3.5,1.4c0.7,0.7,1,1.7,1,3.4L264.7,13.5z
			 M264.7,12.9c0.1-2.2-0.7-4-2.7-4c-2,0-3.3,1.7-3.6,4L264.7,12.9z"/>
		<path fill="#151515" d="M271.4,11.6c0,0.1,0,0.1,0.1,0.1c0,0,0.1-0.1,0.1-0.1c1-2.9,2.1-3.3,3-3.3c1.3,0,2,1.3,2,1.5
			c0,0.3-0.9,0.9-1.2,0.9c-0.2,0-0.3,0-0.8-0.5c-0.4-0.4-0.6-0.6-0.9-0.6c-0.9,0-2,2-2,3.6v5.2c0,0.6,0,0.7,0.1,0.8
			c0.1,0.1,0.6,0.2,2.1,0.3v0.5c-0.8,0-2.2-0.1-3.1-0.1c-0.8,0-2.3,0.1-2.6,0.1v-0.5c1.2,0,1.5-0.1,1.5-0.2c0.1-0.1,0.1-0.3,0.1-1.6
			V11c0-1.3-0.1-1.5-0.1-1.6c-0.1-0.1-0.2-0.1-0.6-0.1H268l0.2-0.5l3.4-0.2L271.4,11.6z"/>
		<path fill="#91B0D5" d="M96.9,38.4c3.6,0,5.6,2.6,5.6,6c0,3.4-2,6-5.6,6c-3.6,0-5.6-2.7-5.6-6C91.3,41.1,93.3,38.4,96.9,38.4z
			 M96.9,50c2.3,0,3.5-2.2,3.5-5.5c0-3.4-1.2-5.5-3.5-5.5c-2.3,0-3.5,2.2-3.5,5.5C93.4,47.8,94.6,50,96.9,50z"/>
		<path fill="#91B0D5" d="M107.4,47.8c0,1.3,0,1.5,0.1,1.6c0.1,0.1,0.4,0.2,1.3,0.2v0.5c-0.3,0-1.6-0.1-2.4-0.1
			c-1,0-2.1,0.1-2.6,0.1v-0.5c1.2,0,1.5-0.1,1.5-0.2c0.1-0.1,0.1-0.3,0.1-1.6V41c0-1.3-0.1-1.5-0.1-1.6c-0.1-0.1-0.2-0.1-0.6-0.1
			h-1.1l0.2-0.5l3.5-0.2c0,0.6-0.1,1.5-0.1,1.7c0,0.1,0,0.2,0.1,0.2c0.1,0,0.1,0,0.3-0.2c1.2-1,2.6-1.7,3.9-1.7
			c1.2,0,2.2,0.4,2.7,0.9c0.8,0.8,1.1,2,1.1,3.6v4.7c0,1.3,0,1.5,0.1,1.6c0.1,0.1,0.4,0.2,1.3,0.2v0.5c-0.3,0-1.6-0.1-2.4-0.1
			c-1,0-2.1,0.1-2.6,0.1v-0.5c1.2,0,1.5-0.1,1.5-0.2c0.1-0.1,0.1-0.3,0.1-1.6v-4.6c0-2.4-0.9-3.6-2.8-3.6c-0.9,0-2,0.3-3.4,1.5V47.8
			z"/>
		<path fill="#91B0D5" d="M128.5,33.8c0-1.1,0-1.6-0.1-1.7c-0.2-0.2-0.6-0.2-1.8-0.2v-0.5c1.6,0,3.2,0.1,4.1,0.1
			c2.9,0,7.8,0,8.2-0.1c0.2-0.1,0.3-0.1,0.4-0.7h0.5v4.6h-0.5c-0.1-2.5-0.4-2.7-0.7-2.9c-0.4-0.2-2.5-0.4-5.2-0.4
			c-1.9,0-2.5,0.1-2.6,0.2c-0.1,0.1-0.1,0.4-0.1,1.7v6.5c1.7,0,6,0,6.4-0.2c0.3-0.1,0.5-0.2,0.5-2.2h0.5v5.8h-0.5
			c-0.1-2.1-0.1-2.3-0.3-2.5c-0.1-0.1-0.9-0.2-2.6-0.2c-1.5,0-2.5,0-3.9,0v6.7c0,1.1,0,1.6,0.1,1.7c0.1,0.1,0.3,0.2,1.2,0.2l1.1,0.1
			v0.5c-0.8,0-2.5-0.1-3.6-0.1c-1,0-2.7,0.1-3,0.1v-0.5c1.2-0.1,1.6-0.1,1.8-0.2c0.1-0.1,0.1-0.6,0.1-1.7V33.8z"/>
		<path fill="#91B0D5" d="M143.2,41c0-1.3-0.1-1.5-0.1-1.6c-0.1-0.1-0.2-0.1-0.6-0.1h-1.4l0.2-0.5l3.8-0.2c-0.1,1.3-0.1,2.1-0.1,3.5
			v5.7c0,1.3,0,1.5,0.1,1.6c0.1,0.1,0.4,0.2,1.5,0.2v0.5c-0.3,0-1.8-0.1-2.6-0.1c-1,0-2.3,0.1-2.8,0.1v-0.5c1.4,0,1.7-0.1,1.8-0.2
			c0.1-0.1,0.1-0.3,0.1-1.6V41z M144,35.3c-0.6,0-1-0.5-1-1c0-0.6,0.5-1.4,1.4-1.4c0.6,0,1,0.5,1,1C145.5,34.4,145,35.3,144,35.3z"
			/>
		<path fill="#91B0D5" d="M149.5,47.7c0.2,0,0.2,0.2,0.6,0.7c0.8,1.1,1.4,1.6,2.5,1.6c1.5,0,2.4-1.2,2.4-2.2c0-1.3-0.9-1.7-3-2.6
			c-2.3-1-3.1-1.8-3.1-3.3c0-1.7,1.4-3.4,4.2-3.4c2.3,0,3,1.2,3,1.9c0,0.5-0.6,0.7-1,0.7c-0.3,0-0.3-0.1-0.4-0.9
			c-0.2-0.9-0.7-1.2-1.7-1.2c-1.6,0-2.5,1.1-2.5,2.2c0,1,0.5,1.5,2.8,2.5c2.5,1.1,3.3,1.7,3.3,3.4c0,1.8-1.7,3.5-4.4,3.5
			c-2.2,0-3.5-1.1-3.5-1.7C148.7,48.3,149.3,47.7,149.5,47.7z"/>
		<path fill="#91B0D5" d="M169.1,48.5c-0.8,0.7-2.4,1.9-4.8,1.9c-2.9,0-5.5-1.9-5.5-5.8c0-3.3,2.3-6.2,5.8-6.2
			c2.8,0,4.2,1.7,4.2,2.6c0,0.6-0.9,1-1.1,1c-0.3,0-0.4-0.3-0.6-1c-0.3-1.2-1.1-2.1-2.5-2.1c-2.4,0-3.8,2.4-3.8,5.1
			c0,3.7,2.3,5.3,4.7,5.3c1.2,0,2.4-0.4,3.4-1.1L169.1,48.5z"/>
		<path fill="#91B0D5" d="M181.9,49l-0.8,0.5c-1.2,0.8-1.4,0.9-1.7,0.9c-0.6,0-1-0.6-1.3-1.3c-0.9,0.6-2.2,1.3-3.9,1.3
			c-2.2,0-3-1.4-3-2.6c0-2.5,2.6-3.8,7.1-4.1c0.1-1,0.1-1.4,0.1-1.9c0-2-0.8-2.9-2.5-2.9c-1.4,0-2.5,0.6-2.5,1.7
			c0,0.2,0.1,0.4,0.1,0.7s-0.2,0.5-0.5,0.7c-0.3,0.2-0.5,0.3-0.7,0.3c-0.2,0-0.4-0.2-0.4-0.6c0-1.4,1.3-3.4,4.4-3.4
			c2.7,0,3.8,1.4,3.8,4c0,1.5-0.2,4.9-0.2,5.5c0,0.6,0,1.2,0.6,1.2c0.3,0,0.6-0.1,1.2-0.4L181.9,49z M178.3,44.3
			c-2.8,0.1-5.2,1-5.2,3.2c0,1.3,0.8,2.1,2.1,2.1c0.7,0,1.8-0.2,2.9-1L178.3,44.3z"/>
		<path fill="#91B0D5" d="M185.4,32.7c0-1.3-0.1-1.5-0.1-1.6c-0.1-0.1-0.2-0.1-0.6-0.1h-1.1v-0.5l3.9-0.5c-0.1,1.1-0.2,3.2-0.2,5.3
			v12.5c0,1.3,0,1.5,0.1,1.6c0.1,0.1,0.4,0.2,1.5,0.2v0.5c-0.3,0-1.8-0.1-2.6-0.1c-1,0-2.3,0.1-2.8,0.1v-0.5c1.4,0,1.7-0.1,1.8-0.2
			c0.1-0.1,0.1-0.3,0.1-1.6V32.7z"/>
		<path fill="#91B0D5" d="M209.9,39.9c1.4,0,2.2,0.1,3,0.1c1,0,2.2-0.1,3.2-0.1v0.5h-1.7c-0.9,0-1,0.1-2.3,2.2l-1.6,2.6
			c1.1,1.6,1.2,1.8,2.7,4.3c0.8,0.1,1.4,0.1,2.1,0.1v0.5H214c-1.2,0-2,0.1-2.8,0.4c-0.7-1.2-1.8-3.5-2.1-3.5c-0.1,0-0.1,0.1-0.2,0.2
			c-0.9,1.3-2.4,3.3-5.4,3.3c-3.4,0-4.9-2.8-4.9-4.7c0-3.1,2.7-4.6,4.3-5.4c-1.5-1.2-2.9-2.3-2.9-4.4c0-2.3,1.8-4.2,4.7-4.2
			c3.1,0,4.2,2.1,4.2,3.6c0,2.3-2.2,3.6-3.4,4.4c1.6,1.3,3,2.9,4.2,4.5c0.3,0.4,0.3,0.5,0.4,0.5c0.1,0,0.2-0.2,0.6-0.9
			c1.4-2.5,1.7-3,1.7-3.2c0-0.2-0.1-0.2-0.4-0.2h-2.1V39.9z M200.6,44.7c0,2.2,1.7,4.2,4.2,4.2c1.6,0,2.7-0.7,4-2.4
			c-1.7-2.3-2.9-3.6-5.3-5.8C201.7,41.6,200.6,42.8,200.6,44.7z M207.4,35.6c0-1.5-1-3.3-2.9-3.3c-1.8,0-2.6,1.4-2.6,2.8
			c0,1.6,1,2.5,2.8,4c0.1,0.1,0.3,0.2,0.3,0.3C205.9,38.9,207.4,37.9,207.4,35.6z"/>
		<path fill="#91B0D5" d="M245.2,31.4c1.1,0,2.7-0.1,3-0.1v0.5c-0.5,0-1.1,0.1-1.4,0.1c-0.2,0-0.3,0.1-0.4,0.1
			c-0.1,0.1-0.1,0.6-0.1,1.7l0.1,13.9c0,1.1,0,1.6,0.1,1.7c0.1,0.1,0.3,0.2,0.9,0.2l0.9,0.1v0.5c-0.3,0-1.9-0.1-3-0.1
			c-1,0-2.7,0.1-3.2,0.1v-0.5l1.1-0.1c0.6,0,0.8-0.1,0.9-0.2c0.1-0.1,0.1-0.6,0.1-1.7c0-5.2-0.2-10.2-0.2-15.3c0-0.2,0-0.3-0.1-0.3
			c-0.1,0-0.2,0.2-0.3,0.5l-5.8,15.2c-0.3,0.8-0.6,1-1,1.6c-0.4,0.5-0.4,0.9-0.6,0.9s-0.2-0.9-1.4-3.7l-5.7-14
			c-0.2-0.4-0.2-0.5-0.3-0.5c-0.1,0-0.2,0.1-0.2,0.2c-0.1,2.4-0.1,11.8-0.1,15.3c0,1.3,0,1.6,0.1,1.7c0.2,0.2,0.7,0.2,2,0.2v0.5
			c-0.3,0-1.7-0.1-2.5-0.1c-0.8,0-2.1,0.1-2.5,0.1v-0.5c1.4,0,1.7-0.1,1.8-0.2c0.1-0.1,0.1-0.6,0.2-1.7c0.2-7,0.5-14.1,0.5-14.6
			c0-0.6,0-0.8-0.1-0.9c-0.1-0.1-0.4-0.2-1.8-0.2v-0.6h1.9c1.1,0,1.9-0.1,2.8-0.2l6.4,15.8c0.1,0.1,0.1,0.2,0.2,0.2
			c0.1,0,0.1-0.1,0.2-0.2l5.9-15.6H245.2z"/>
		<path fill="#91B0D5" d="M256,38.4c3.6,0,5.6,2.6,5.6,6c0,3.4-2,6-5.6,6c-3.6,0-5.6-2.7-5.6-6C250.5,41.1,252.5,38.4,256,38.4z
			 M256,50c2.3,0,3.5-2.2,3.5-5.5c0-3.4-1.2-5.5-3.5-5.5c-2.3,0-3.5,2.2-3.5,5.5C252.5,47.8,253.7,50,256,50z"/>
		<path fill="#91B0D5" d="M266.5,47.8c0,1.3,0,1.5,0.1,1.6c0.1,0.1,0.4,0.2,1.3,0.2v0.5c-0.3,0-1.6-0.1-2.4-0.1
			c-1,0-2.1,0.1-2.6,0.1v-0.5c1.2,0,1.5-0.1,1.5-0.2c0.1-0.1,0.1-0.3,0.1-1.6V41c0-1.3-0.1-1.5-0.1-1.6c-0.1-0.1-0.2-0.1-0.6-0.1
			h-1.1l0.2-0.5l3.5-0.2c0,0.6-0.1,1.5-0.1,1.7c0,0.1,0,0.2,0.1,0.2c0.1,0,0.1,0,0.3-0.2c1.2-1,2.6-1.7,3.9-1.7
			c1.2,0,2.2,0.4,2.7,0.9c0.8,0.8,1.1,2,1.1,3.6v4.7c0,1.3,0,1.5,0.1,1.6c0.1,0.1,0.4,0.2,1.3,0.2v0.5c-0.3,0-1.6-0.1-2.4-0.1
			c-1,0-2.1,0.1-2.6,0.1v-0.5c1.2,0,1.5-0.1,1.5-0.2c0.1-0.1,0.1-0.3,0.1-1.6v-4.6c0-2.4-0.9-3.6-2.8-3.6c-0.9,0-2,0.3-3.4,1.5V47.8
			z"/>
		<path fill="#91B0D5" d="M285.9,43.5l-6.4-0.1c-0.1,0.2-0.1,0.6-0.1,1c0,2.6,1.4,5,4.5,5c1.6,0,2.6-0.7,3.8-1.9l0.3,0.3
			c-1,1.1-2.7,2.7-5.1,2.7c-3.2,0-5.6-2.2-5.6-5.7c0-3.3,2.3-6.3,5.8-6.3c1.5,0,2.7,0.5,3.5,1.4c0.7,0.7,1,1.7,1,3.4L285.9,43.5z
			 M285.9,42.9c0.1-2.2-0.7-4-2.7-4c-2,0-3.3,1.7-3.6,4L285.9,42.9z"/>
		<path fill="#91B0D5" d="M292.8,39.5c-0.1,1-0.1,2.5-0.1,3.3v2.6c0,3,0,3.8,1.7,3.8c0.8,0,1.6-0.3,2.3-0.6l0.1,0.4
			c-0.7,0.5-2.3,1.4-3.9,1.4c-1.4,0-2-0.7-2-2.4v-6.3c0-1.8,0-1.9-0.1-2.1c0-0.1-0.1-0.2-0.4-0.2c-0.3,0-0.6,0-0.8,0
			c-0.1,0-0.1,0-0.1-0.1c0,0,0.1-0.1,0.1-0.1l3-4c0.1-0.1,0.1-0.1,0.2-0.1c0.1,0,0.1,0.1,0.1,0.2c0,0.1-0.1,1.1-0.2,3.4h3.6
			l-0.2,0.6L292.8,39.5z"/>
		<path fill="#91B0D5" d="M309.1,49l-0.8,0.5c-1.2,0.8-1.4,0.9-1.7,0.9c-0.6,0-1-0.6-1.3-1.3c-0.9,0.6-2.2,1.3-3.9,1.3
			c-2.2,0-3-1.4-3-2.6c0-2.5,2.6-3.8,7.1-4.1c0.1-1,0.1-1.4,0.1-1.9c0-2-0.8-2.9-2.5-2.9c-1.4,0-2.5,0.6-2.5,1.7
			c0,0.2,0.1,0.4,0.1,0.7s-0.2,0.5-0.5,0.7c-0.3,0.2-0.5,0.3-0.7,0.3c-0.2,0-0.4-0.2-0.4-0.6c0-1.4,1.3-3.4,4.4-3.4
			c2.7,0,3.8,1.4,3.8,4c0,1.5-0.2,4.9-0.2,5.5c0,0.6,0,1.2,0.6,1.2c0.3,0,0.6-0.1,1.2-0.4L309.1,49z M305.5,44.3
			c-2.8,0.1-5.2,1-5.2,3.2c0,1.3,0.8,2.1,2.1,2.1c0.7,0,1.8-0.2,2.9-1L305.5,44.3z"/>
		<path fill="#91B0D5" d="M313.8,41.6c0,0.1,0,0.1,0.1,0.1c0,0,0.1-0.1,0.1-0.1c1-2.9,2.1-3.3,3-3.3c1.3,0,2,1.3,2,1.5
			c0,0.3-0.9,0.9-1.2,0.9c-0.2,0-0.3,0-0.8-0.5c-0.4-0.4-0.6-0.6-0.9-0.6c-0.9,0-2,2-2,3.6v5.2c0,0.6,0,0.7,0.1,0.8
			c0.1,0.1,0.6,0.2,2.1,0.3v0.5c-0.8,0-2.2-0.1-3.1-0.1c-0.8,0-2.3,0.1-2.6,0.1v-0.5c1.2,0,1.5-0.1,1.5-0.2c0.1-0.1,0.1-0.3,0.1-1.6
			V41c0-1.3-0.1-1.5-0.1-1.6c-0.1-0.1-0.2-0.1-0.6-0.1h-1.1l0.2-0.5l3.4-0.2L313.8,41.6z"/>
		<path fill="#91B0D5" d="M328.1,38.7c0.6,0,1.4,0.1,2,0.1c0.6,0,1.3,0,1.8-0.1v0.5c-0.6,0-0.9,0.1-1.1,0.2
			c-0.2,0.1-0.4,0.4-0.5,0.9l-3.7,9.2c-1.2,3-1.6,5-2.6,6.2c-0.7,0.8-1.7,1.2-2.8,1.2c-0.4,0-0.5-0.1-0.5-0.2c0-0.3,0.4-1.2,1.5-1.5
			c1.7-0.4,1.8-0.2,2.3-1.3c0.5-1.2,1-2.6,1-2.8c0-0.2-0.1-0.6-0.4-1.1l-3.7-9.2c-0.3-0.7-0.4-1.1-0.6-1.2c-0.1-0.1-0.2-0.1-1-0.2
			v-0.5c0.6,0,1.6,0.1,2.4,0.1c0.9,0,1.8,0,2.6-0.1v0.5c-1.5,0.1-1.7,0.1-1.7,0.4c0,0.1,0.1,0.4,0.2,0.6l3.1,7.6
			c0.1,0.2,0.1,0.3,0.2,0.3c0.1,0,0.2-0.2,0.2-0.4l2.3-6.4c0.3-0.9,0.6-1.4,0.6-1.7c0-0.3-0.5-0.4-1.6-0.4V38.7z"/>
		<path fill="#91B0D5" d="M342.5,33.8c0-1.1,0-1.6-0.1-1.7c-0.2-0.2-0.6-0.2-1.8-0.2v-0.5c0.4,0,2.1,0.1,3,0.1c0.5,0,1.1,0,1.8-0.1
			c0.7,0,1.4-0.1,2.3-0.1c4.3,0,6.5,2.1,6.5,5.2c0,3.5-3,5.3-6.8,5.3c-1,0-1.7-0.1-2.7-0.1v6c0,1.1,0,1.6,0.1,1.7
			c0.2,0.2,0.6,0.2,2.4,0.2v0.5c-0.8,0-2.5-0.1-3.6-0.1c-1,0-2.7,0.1-3,0.1v-0.5c1.2-0.1,1.6-0.1,1.8-0.2c0.1-0.1,0.1-0.6,0.1-1.7
			V33.8z M344.7,41.1c0.7,0.1,1.3,0.2,2.1,0.2c3.6,0,5-2.2,5-4.7c0-2.5-1.6-4.6-5.3-4.6c-1.4,0-1.6,0.2-1.7,0.3
			c-0.1,0.1-0.1,0.4-0.1,1.6V41.1z"/>
		<path fill="#91B0D5" d="M360.7,38.4c3.6,0,5.6,2.6,5.6,6c0,3.4-2,6-5.6,6c-3.6,0-5.6-2.7-5.6-6C355.1,41.1,357.1,38.4,360.7,38.4z
			 M360.7,50c2.3,0,3.5-2.2,3.5-5.5c0-3.4-1.2-5.5-3.5-5.5c-2.3,0-3.5,2.2-3.5,5.5C357.2,47.8,358.4,50,360.7,50z"/>
		<path fill="#91B0D5" d="M369.4,32.7c0-1.3-0.1-1.5-0.1-1.6c-0.1-0.1-0.2-0.1-0.6-0.1h-1.1v-0.5l3.9-0.5c-0.1,1.1-0.2,3.2-0.2,5.3
			v12.5c0,1.3,0,1.5,0.1,1.6c0.1,0.1,0.4,0.2,1.5,0.2v0.5c-0.3,0-1.8-0.1-2.6-0.1c-1,0-2.3,0.1-2.8,0.1v-0.5c1.4,0,1.7-0.1,1.8-0.2
			c0.1-0.1,0.1-0.3,0.1-1.6V32.7z"/>
		<path fill="#91B0D5" d="M376.6,41c0-1.3-0.1-1.5-0.1-1.6c-0.1-0.1-0.2-0.1-0.6-0.1h-1.4l0.2-0.5l3.8-0.2c-0.1,1.3-0.1,2.1-0.1,3.5
			v5.7c0,1.3,0,1.5,0.1,1.6c0.1,0.1,0.4,0.2,1.5,0.2v0.5c-0.3,0-1.8-0.1-2.6-0.1c-1,0-2.3,0.1-2.8,0.1v-0.5c1.4,0,1.7-0.1,1.8-0.2
			c0.1-0.1,0.1-0.3,0.1-1.6V41z M377.4,35.3c-0.6,0-1-0.5-1-1c0-0.6,0.5-1.4,1.4-1.4c0.6,0,1,0.5,1,1
			C378.8,34.4,378.4,35.3,377.4,35.3z"/>
		<path fill="#91B0D5" d="M391.8,48.5c-0.8,0.7-2.4,1.9-4.8,1.9c-2.9,0-5.5-1.9-5.5-5.8c0-3.3,2.3-6.2,5.8-6.2
			c2.8,0,4.2,1.7,4.2,2.6c0,0.6-0.9,1-1.1,1c-0.3,0-0.4-0.3-0.6-1c-0.3-1.2-1.1-2.1-2.5-2.1c-2.4,0-3.8,2.4-3.8,5.1
			c0,3.7,2.3,5.3,4.7,5.3c1.2,0,2.4-0.4,3.4-1.1L391.8,48.5z"/>
		<path fill="#91B0D5" d="M401.1,38.7c0.6,0,1.4,0.1,2,0.1c0.6,0,1.3,0,1.8-0.1v0.5c-0.6,0-0.9,0.1-1.1,0.2
			c-0.2,0.1-0.4,0.4-0.5,0.9l-3.7,9.2c-1.2,3-1.6,5-2.7,6.2c-0.7,0.8-1.7,1.2-2.8,1.2c-0.4,0-0.5-0.1-0.5-0.2c0-0.3,0.4-1.2,1.5-1.5
			c1.7-0.4,1.8-0.2,2.3-1.3c0.5-1.2,1-2.6,1-2.8c0-0.2-0.1-0.6-0.4-1.1l-3.7-9.2c-0.3-0.7-0.4-1.1-0.6-1.2c-0.1-0.1-0.2-0.1-1-0.2
			v-0.5c0.6,0,1.6,0.1,2.4,0.1c0.9,0,1.8,0,2.6-0.1v0.5c-1.5,0.1-1.7,0.1-1.7,0.4c0,0.1,0.1,0.4,0.2,0.6l3.1,7.6
			c0.1,0.2,0.1,0.3,0.2,0.3s0.2-0.2,0.2-0.4l2.3-6.4c0.3-0.9,0.6-1.4,0.6-1.7c0-0.3-0.5-0.4-1.6-0.4V38.7z"/>
	</g>
</g>
<text transform="matrix(1 0 0 1 90.1846 80.6191)"><tspan x="0" y="0" fill="#231F20" font-family="'FairfieldLTStd-Medium'" font-size="23.181">at </tspan><tspan x="26" y="0" fill="#231F20" font-family="'FairfieldLTStd-Medium'" font-size="23.181">B</tspan><tspan x="41.9" y="0" fill="#231F20" font-family="'FairfieldLTStd-Medium'" font-size="23.181">RO</tspan><tspan x="77.7" y="0" fill="#231F20" font-family="'FairfieldLTStd-Medium'" font-size="23.181">O</tspan><tspan x="96.6" y="0" fill="#231F20" font-family="'FairfieldLTStd-Medium'" font-size="23.181" letter-spacing="2">K</tspan><tspan x="114.5" y="0" fill="#231F20" font-family="'FairfieldLTStd-Medium'" font-size="23.181" letter-spacing="1">I</tspan><tspan x="124.5" y="0" fill="#231F20" font-family="'FairfieldLTStd-Medium'" font-size="23.181">NG</tspan><tspan x="161.9" y="0" fill="#231F20" font-family="'FairfieldLTStd-Medium'" font-size="23.181" letter-spacing="1">S</tspan></text>
</svg>
