<?xml version="1.0" encoding="UTF-8" standalone="no"?>
<svg
   xmlns:dc="http://purl.org/dc/elements/1.1/"
   xmlns:cc="http://creativecommons.org/ns#"
   xmlns:rdf="http://www.w3.org/1999/02/22-rdf-syntax-ns#"
   xmlns:svg="http://www.w3.org/2000/svg"
   xmlns="http://www.w3.org/2000/svg"
   xmlns:sodipodi="http://sodipodi.sourceforge.net/DTD/sodipodi-0.dtd"
   xmlns:inkscape="http://www.inkscape.org/namespaces/inkscape"
   width="210mm"
   height="297mm"
   viewBox="0 0 210 297"
   version="1.1"
   id="svg8"
   sodipodi:docname="logo.svg"
   inkscape:version="1.0.1 (c497b03c, 2020-09-10)">
  <defs
     id="defs2" />
  <sodipodi:namedview
     id="base"
     pagecolor="#ffffff"
     bordercolor="#666666"
     borderopacity="1.0"
     inkscape:pageopacity="0.0"
     inkscape:pageshadow="2"
     inkscape:zoom="0.77863095"
     inkscape:cx="396.85039"
     inkscape:cy="561.25984"
     inkscape:document-units="mm"
     inkscape:current-layer="layer1"
     inkscape:document-rotation="0"
     showgrid="false"
     inkscape:window-width="1252"
     inkscape:window-height="943"
     inkscape:window-x="0"
     inkscape:window-y="25"
     inkscape:window-maximized="0" />
  <metadata
     id="metadata5">
    <rdf:RDF>
      <cc:Work
         rdf:about="">
        <dc:format>image/svg+xml</dc:format>
        <dc:type
           rdf:resource="http://purl.org/dc/dcmitype/StillImage" />
      </cc:Work>
    </rdf:RDF>
  </metadata>
  <g
     inkscape:label="Layer 1"
     inkscape:groupmode="layer"
     id="layer1">
    <g
       id="g1310"
       transform="matrix(-1,0,0,1,228.17109,0)">
      <g
         id="g1308"
         transform="translate(2.3368737,34.138677)"
         inkscape:export-xdpi="96"
         inkscape:export-ydpi="96">
        <path
           style="fill:#92b0d6;stroke-width:1"
           d="m 96.005959,139.85119 v -15.875 h 3.042708 3.042713 v 7.01146 7.01146 h 9.78958 9.78958 v -7.01146 -7.01146 h 2.91042 2.91042 v 15.875 15.875 h -2.91042 -2.91042 v -5.68854 -5.68854 h -9.78958 -9.78958 v 5.68854 5.68854 h -3.042713 -3.042708 z m 8.852531,13.95733 -0.13691,-0.35677 0.074,-3.69143 0.074,-3.69142 1.66061,-0.079 1.6606,-0.0789 -0.0731,4.0477 -0.0731,4.0477 -1.52455,0.0794 -1.52456,0.0795 z m 5.29166,0 -0.1369,-0.35677 0.074,-3.69143 0.074,-3.69142 1.6606,-0.079 1.66061,-0.0789 -0.0731,4.0477 -0.0731,4.0477 -1.52456,0.0794 -1.52455,0.0795 z m 5.28657,-0.0133 -0.13181,-0.34347 0.074,-3.69142 0.074,-3.69142 1.65365,-0.0788 1.65365,-0.0788 v 4.11366 4.11367 h -1.59581 -1.5958 l -0.1318,-0.34347 z m -10.69951,-18.1786 v -0.53041 l 3.59166,-1.78469 3.59166,-1.7847 3.35365,1.76071 3.35365,1.76071 0.0845,0.55439 0.0846,0.5544 h -7.02986 -7.02986 z"
           id="path1302" />
        <path
           style="fill:#99999a;stroke-width:1"
           d="m 96.005959,139.85119 v -15.875 h 3.042708 3.042713 v 7.01146 7.01146 h 9.78958 9.78958 v -7.01146 -7.01146 h 2.91042 2.91042 v 15.875 15.875 h -2.91042 -2.91042 v -5.82083 -5.82084 h -9.78958 -9.78958 v 5.82084 5.82083 h -3.042713 -3.042708 z"
           id="path1304" />
        <path
           style="fill:#131315;stroke-width:1"
           d="m 96.005959,139.85119 v -15.875 h 2.910417 2.910414 v 7.14375 7.14375 h 9.92188 9.92187 v -7.14375 -7.14375 h 2.91042 2.91042 v 15.875 15.875 h -2.91042 -2.91042 v -5.82083 -5.82084 h -9.92187 -9.92188 v 5.82084 5.82083 h -2.910414 -2.910417 z"
           id="path1306" />
      </g>
    </g>
    <g
       id="g1300">
      <g
         id="g1157"
         transform="translate(2.3368737,34.138677)"
         inkscape:export-xdpi="96"
         inkscape:export-ydpi="96">
        <path
           style="fill:#92b0d6;stroke-width:1"
           d="m 96.005959,139.85119 v -15.875 h 3.042708 3.042713 v 7.01146 7.01146 h 9.78958 9.78958 v -7.01146 -7.01146 h 2.91042 2.91042 v 15.875 15.875 h -2.91042 -2.91042 v -5.68854 -5.68854 h -9.78958 -9.78958 v 5.68854 5.68854 h -3.042713 -3.042708 z m 8.852531,13.95733 -0.13691,-0.35677 0.074,-3.69143 0.074,-3.69142 1.66061,-0.079 1.6606,-0.0789 -0.0731,4.0477 -0.0731,4.0477 -1.52455,0.0794 -1.52456,0.0795 z m 5.29166,0 -0.1369,-0.35677 0.074,-3.69143 0.074,-3.69142 1.6606,-0.079 1.66061,-0.0789 -0.0731,4.0477 -0.0731,4.0477 -1.52456,0.0794 -1.52455,0.0795 z m 5.28657,-0.0133 -0.13181,-0.34347 0.074,-3.69142 0.074,-3.69142 1.65365,-0.0788 1.65365,-0.0788 v 4.11366 4.11367 h -1.59581 -1.5958 l -0.1318,-0.34347 z m -10.69951,-18.1786 v -0.53041 l 3.59166,-1.78469 3.59166,-1.7847 3.35365,1.76071 3.35365,1.76071 0.0845,0.55439 0.0846,0.5544 h -7.02986 -7.02986 z"
           id="path1163" />
        <path
           style="fill:#99999a;stroke-width:1"
           d="m 96.005959,139.85119 v -15.875 h 3.042708 3.042713 v 7.01146 7.01146 h 9.78958 9.78958 v -7.01146 -7.01146 h 2.91042 2.91042 v 15.875 15.875 h -2.91042 -2.91042 v -5.82083 -5.82084 h -9.78958 -9.78958 v 5.82084 5.82083 h -3.042713 -3.042708 z"
           id="path1161" />
        <path
           style="fill:#131315;stroke-width:1"
           d="m 96.005959,139.85119 v -15.875 h 2.910417 2.910414 v 7.14375 7.14375 h 9.92188 9.92187 v -7.14375 -7.14375 h 2.91042 2.91042 v 15.875 15.875 h -2.91042 -2.91042 v -5.82083 -5.82084 h -9.92187 -9.92188 v 5.82084 5.82083 h -2.910414 -2.910417 z"
           id="path1159" />
      </g>
    </g>
  </g>
</svg>
